<svg width="1440" height="905" viewBox="0 0 1440 905" fill="none" xmlns="http://www.w3.org/2000/svg">
<g clip-path="url(#clip0_10_517)">
<rect width="1440" height="905" fill="url(#paint0_linear_10_517)"/>
<g clip-path="url(#clip1_10_517)">
<path d="M6.03442 -840.119L6.03442 1745.11" stroke="white" stroke-width="0.4" stroke-miterlimit="10"/>
<path d="M19.3811 -840.119L19.3811 1745.11" stroke="white" stroke-width="0.4" stroke-miterlimit="10"/>
<path d="M32.728 -840.119L32.728 1745.11" stroke="white" stroke-width="0.4" stroke-miterlimit="10"/>
<path d="M46.0747 -840.119L46.0747 1745.11" stroke="white" stroke-width="0.4" stroke-miterlimit="10"/>
<path d="M59.4216 -840.119L59.4216 1745.11" stroke="white" stroke-width="0.4" stroke-miterlimit="10"/>
<path d="M72.7612 -840.119L72.7612 1745.11" stroke="white" stroke-width="0.4" stroke-miterlimit="10"/>
<path d="M86.1082 -840.119L86.1082 1745.11" stroke="white" stroke-width="0.4" stroke-miterlimit="10"/>
<path d="M99.4548 -840.119L99.4548 1745.11" stroke="white" stroke-width="0.4" stroke-miterlimit="10"/>
<path d="M112.802 -840.119L112.802 1745.11" stroke="white" stroke-width="0.4" stroke-miterlimit="10"/>
<path d="M126.141 -840.119L126.141 1745.11" stroke="white" stroke-width="0.4" stroke-miterlimit="10"/>
<path d="M139.488 -840.119L139.488 1745.11" stroke="white" stroke-width="0.4" stroke-miterlimit="10"/>
<path d="M152.835 -840.119L152.835 1745.11" stroke="white" stroke-width="0.4" stroke-miterlimit="10"/>
<path d="M166.182 -840.119L166.182 1745.11" stroke="white" stroke-width="0.4" stroke-miterlimit="10"/>
<path d="M179.522 -840.119L179.522 1745.11" stroke="white" stroke-width="0.4" stroke-miterlimit="10"/>
<path d="M192.868 -840.119L192.868 1745.11" stroke="white" stroke-width="0.4" stroke-miterlimit="10"/>
<path d="M206.215 -840.119L206.215 1745.11" stroke="white" stroke-width="0.4" stroke-miterlimit="10"/>
<path d="M219.562 -840.119L219.562 1745.11" stroke="white" stroke-width="0.4" stroke-miterlimit="10"/>
<path d="M232.902 -840.119L232.902 1745.11" stroke="white" stroke-width="0.4" stroke-miterlimit="10"/>
<path d="M246.249 -840.119L246.249 1745.11" stroke="white" stroke-width="0.4" stroke-miterlimit="10"/>
<path d="M259.595 -840.119L259.595 1745.11" stroke="white" stroke-width="0.4" stroke-miterlimit="10"/>
<path d="M272.942 -840.119L272.942 1745.11" stroke="white" stroke-width="0.4" stroke-miterlimit="10"/>
<path d="M286.282 -840.119L286.282 1745.11" stroke="white" stroke-width="0.4" stroke-miterlimit="10"/>
<path d="M299.629 -840.119L299.629 1745.11" stroke="white" stroke-width="0.4" stroke-miterlimit="10"/>
<path d="M312.975 -840.119L312.975 1745.11" stroke="white" stroke-width="0.4" stroke-miterlimit="10"/>
<path d="M326.322 -840.119L326.322 1745.11" stroke="white" stroke-width="0.4" stroke-miterlimit="10"/>
<path d="M339.662 -840.119L339.662 1745.11" stroke="white" stroke-width="0.4" stroke-miterlimit="10"/>
<path d="M353.009 -840.119L353.009 1745.11" stroke="white" stroke-width="0.4" stroke-miterlimit="10"/>
<path d="M366.356 -840.119L366.356 1745.11" stroke="white" stroke-width="0.4" stroke-miterlimit="10"/>
<path d="M379.702 -840.119L379.702 1745.11" stroke="white" stroke-width="0.4" stroke-miterlimit="10"/>
<path d="M393.049 -840.119L393.049 1745.11" stroke="white" stroke-width="0.4" stroke-miterlimit="10"/>
<path d="M406.389 -840.119L406.389 1745.11" stroke="white" stroke-width="0.4" stroke-miterlimit="10"/>
<path d="M419.736 -840.119L419.736 1745.11" stroke="white" stroke-width="0.4" stroke-miterlimit="10"/>
<path d="M433.083 -840.119L433.083 1745.11" stroke="white" stroke-width="0.4" stroke-miterlimit="10"/>
<path d="M446.429 -840.119L446.429 1745.11" stroke="white" stroke-width="0.4" stroke-miterlimit="10"/>
<path d="M459.769 -840.119L459.769 1745.11" stroke="white" stroke-width="0.4" stroke-miterlimit="10"/>
<path d="M473.116 -840.119L473.116 1745.11" stroke="white" stroke-width="0.4" stroke-miterlimit="10"/>
<path d="M486.463 -840.119L486.463 1745.11" stroke="white" stroke-width="0.4" stroke-miterlimit="10"/>
<path d="M499.81 -840.119L499.81 1745.11" stroke="white" stroke-width="0.4" stroke-miterlimit="10"/>
<path d="M513.149 -840.119L513.149 1745.11" stroke="white" stroke-width="0.4" stroke-miterlimit="10"/>
<path d="M526.496 -840.119L526.496 1745.11" stroke="white" stroke-width="0.4" stroke-miterlimit="10"/>
<path d="M539.843 -840.119L539.843 1745.11" stroke="white" stroke-width="0.4" stroke-miterlimit="10"/>
<path d="M553.19 -840.119L553.19 1745.11" stroke="white" stroke-width="0.4" stroke-miterlimit="10"/>
<path d="M566.529 -840.119L566.529 1745.11" stroke="white" stroke-width="0.4" stroke-miterlimit="10"/>
<path d="M579.876 -840.119L579.876 1745.11" stroke="white" stroke-width="0.4" stroke-miterlimit="10"/>
<path d="M593.223 -840.119L593.223 1745.11" stroke="white" stroke-width="0.4" stroke-miterlimit="10"/>
<path d="M606.57 -840.119L606.57 1745.11" stroke="white" stroke-width="0.4" stroke-miterlimit="10"/>
<path d="M619.91 -840.119L619.91 1745.11" stroke="white" stroke-width="0.4" stroke-miterlimit="10"/>
<path d="M633.256 -840.119L633.256 1745.11" stroke="white" stroke-width="0.4" stroke-miterlimit="10"/>
<path d="M646.603 -840.119L646.603 1745.11" stroke="white" stroke-width="0.4" stroke-miterlimit="10"/>
<path d="M659.95 -840.119L659.95 1745.11" stroke="white" stroke-width="0.4" stroke-miterlimit="10"/>
<path d="M673.297 -840.119L673.297 1745.11" stroke="white" stroke-width="0.4" stroke-miterlimit="10"/>
<path d="M686.637 -840.119L686.637 1745.11" stroke="white" stroke-width="0.4" stroke-miterlimit="10"/>
<path d="M699.983 -840.119L699.983 1745.11" stroke="white" stroke-width="0.4" stroke-miterlimit="10"/>
<path d="M713.33 -840.119L713.33 1745.11" stroke="white" stroke-width="0.4" stroke-miterlimit="10"/>
<path d="M726.677 -840.119L726.677 1745.11" stroke="white" stroke-width="0.4" stroke-miterlimit="10"/>
<path d="M740.017 -840.119L740.017 1745.11" stroke="white" stroke-width="0.4" stroke-miterlimit="10"/>
<path d="M753.364 -840.119L753.364 1745.11" stroke="white" stroke-width="0.4" stroke-miterlimit="10"/>
<path d="M766.71 -840.119L766.71 1745.11" stroke="white" stroke-width="0.4" stroke-miterlimit="10"/>
<path d="M780.057 -840.119L780.057 1745.11" stroke="white" stroke-width="0.4" stroke-miterlimit="10"/>
<path d="M793.397 -840.119L793.397 1745.11" stroke="white" stroke-width="0.4" stroke-miterlimit="10"/>
<path d="M806.744 -840.119L806.744 1745.11" stroke="white" stroke-width="0.4" stroke-miterlimit="10"/>
<path d="M820.09 -840.119L820.09 1745.11" stroke="white" stroke-width="0.4" stroke-miterlimit="10"/>
<path d="M833.437 -840.119L833.437 1745.11" stroke="white" stroke-width="0.4" stroke-miterlimit="10"/>
<path d="M846.777 -840.119L846.777 1745.11" stroke="white" stroke-width="0.4" stroke-miterlimit="10"/>
<path d="M860.124 -840.119L860.124 1745.11" stroke="white" stroke-width="0.4" stroke-miterlimit="10"/>
<path d="M873.471 -840.119L873.471 1745.11" stroke="white" stroke-width="0.4" stroke-miterlimit="10"/>
<path d="M886.817 -840.119L886.817 1745.11" stroke="white" stroke-width="0.4" stroke-miterlimit="10"/>
<path d="M900.157 -840.119L900.157 1745.11" stroke="white" stroke-width="0.4" stroke-miterlimit="10"/>
<path d="M913.504 -840.119L913.504 1745.11" stroke="white" stroke-width="0.4" stroke-miterlimit="10"/>
<path d="M926.851 -840.119L926.851 1745.11" stroke="white" stroke-width="0.4" stroke-miterlimit="10"/>
<path d="M940.198 -840.119L940.198 1745.11" stroke="white" stroke-width="0.4" stroke-miterlimit="10"/>
<path d="M953.537 -840.119L953.537 1745.11" stroke="white" stroke-width="0.4" stroke-miterlimit="10"/>
<path d="M966.884 -840.119L966.884 1745.11" stroke="white" stroke-width="0.4" stroke-miterlimit="10"/>
<path d="M980.231 -840.119L980.231 1745.11" stroke="white" stroke-width="0.4" stroke-miterlimit="10"/>
<path d="M993.578 -840.119L993.578 1745.11" stroke="white" stroke-width="0.4" stroke-miterlimit="10"/>
<path d="M1006.92 -840.119L1006.92 1745.11" stroke="white" stroke-width="0.4" stroke-miterlimit="10"/>
<path d="M1020.26 -840.119L1020.26 1745.11" stroke="white" stroke-width="0.4" stroke-miterlimit="10"/>
<path d="M1033.61 -840.119L1033.61 1745.11" stroke="white" stroke-width="0.4" stroke-miterlimit="10"/>
<path d="M1046.96 -840.119L1046.96 1745.11" stroke="white" stroke-width="0.4" stroke-miterlimit="10"/>
<path d="M1060.3 -840.119L1060.3 1745.11" stroke="white" stroke-width="0.4" stroke-miterlimit="10"/>
<path d="M1073.64 -840.119L1073.64 1745.11" stroke="white" stroke-width="0.4" stroke-miterlimit="10"/>
<path d="M1086.99 -840.119L1086.99 1745.11" stroke="white" stroke-width="0.4" stroke-miterlimit="10"/>
<path d="M1100.34 -840.119L1100.34 1745.11" stroke="white" stroke-width="0.4" stroke-miterlimit="10"/>
<path d="M1113.68 -840.119L1113.68 1745.11" stroke="white" stroke-width="0.4" stroke-miterlimit="10"/>
<path d="M1127.02 -840.119L1127.02 1745.11" stroke="white" stroke-width="0.4" stroke-miterlimit="10"/>
<path d="M1140.37 -840.119L1140.37 1745.11" stroke="white" stroke-width="0.4" stroke-miterlimit="10"/>
<path d="M1153.72 -840.119L1153.72 1745.11" stroke="white" stroke-width="0.4" stroke-miterlimit="10"/>
<path d="M1167.06 -840.119L1167.06 1745.11" stroke="white" stroke-width="0.4" stroke-miterlimit="10"/>
<path d="M1180.4 -840.119L1180.4 1745.11" stroke="white" stroke-width="0.4" stroke-miterlimit="10"/>
<path d="M1193.75 -840.119L1193.75 1745.11" stroke="white" stroke-width="0.4" stroke-miterlimit="10"/>
<path d="M1207.1 -840.119L1207.1 1745.11" stroke="white" stroke-width="0.4" stroke-miterlimit="10"/>
<path d="M1220.45 -840.119L1220.45 1745.11" stroke="white" stroke-width="0.4" stroke-miterlimit="10"/>
<path d="M1233.78 -840.119L1233.78 1745.11" stroke="white" stroke-width="0.4" stroke-miterlimit="10"/>
<path d="M1247.13 -840.119L1247.13 1745.11" stroke="white" stroke-width="0.4" stroke-miterlimit="10"/>
<path d="M1260.48 -840.119L1260.48 1745.11" stroke="white" stroke-width="0.4" stroke-miterlimit="10"/>
<path d="M1273.83 -840.119L1273.83 1745.11" stroke="white" stroke-width="0.4" stroke-miterlimit="10"/>
<path d="M1287.17 -840.119L1287.17 1745.11" stroke="white" stroke-width="0.4" stroke-miterlimit="10"/>
<path d="M1300.51 -840.119L1300.51 1745.11" stroke="white" stroke-width="0.4" stroke-miterlimit="10"/>
<path d="M1313.86 -840.119L1313.86 1745.11" stroke="white" stroke-width="0.4" stroke-miterlimit="10"/>
<path d="M1327.21 -840.119L1327.21 1745.11" stroke="white" stroke-width="0.4" stroke-miterlimit="10"/>
<path d="M1340.55 -840.119L1340.55 1745.11" stroke="white" stroke-width="0.4" stroke-miterlimit="10"/>
<path d="M1353.89 -840.119L1353.89 1745.11" stroke="white" stroke-width="0.4" stroke-miterlimit="10"/>
<path d="M1367.24 -840.119L1367.24 1745.11" stroke="white" stroke-width="0.4" stroke-miterlimit="10"/>
<path d="M1380.59 -840.119L1380.59 1745.11" stroke="white" stroke-width="0.4" stroke-miterlimit="10"/>
<path d="M1393.93 -840.119L1393.93 1745.11" stroke="white" stroke-width="0.4" stroke-miterlimit="10"/>
<path d="M1407.27 -840.119L1407.27 1745.11" stroke="white" stroke-width="0.4" stroke-miterlimit="10"/>
<path d="M1420.62 -840.119L1420.62 1745.11" stroke="white" stroke-width="0.4" stroke-miterlimit="10"/>
<path d="M1433.97 -840.119L1433.97 1745.11" stroke="white" stroke-width="0.4" stroke-miterlimit="10"/>
<path d="M2012.62 5.44214L-572.619 5.44214" stroke="white" stroke-width="0.4" stroke-miterlimit="10"/>
<path d="M2012.62 18.782L-572.619 18.782" stroke="white" stroke-width="0.4" stroke-miterlimit="10"/>
<path d="M2012.62 32.1289L-572.619 32.1289" stroke="white" stroke-width="0.4" stroke-miterlimit="10"/>
<path d="M2012.62 45.4756L-572.619 45.4756" stroke="white" stroke-width="0.4" stroke-miterlimit="10"/>
<path d="M2012.62 58.8223L-572.619 58.8223" stroke="white" stroke-width="0.4" stroke-miterlimit="10"/>
<path d="M2012.62 72.1621L-572.619 72.1621" stroke="white" stroke-width="0.4" stroke-miterlimit="10"/>
<path d="M2012.62 85.5088L-572.619 85.5088" stroke="white" stroke-width="0.4" stroke-miterlimit="10"/>
<path d="M2012.62 98.8557L-572.619 98.8557" stroke="white" stroke-width="0.4" stroke-miterlimit="10"/>
<path d="M2012.62 112.202L-572.619 112.202" stroke="white" stroke-width="0.4" stroke-miterlimit="10"/>
<path d="M2012.62 125.549L-572.619 125.549" stroke="white" stroke-width="0.4" stroke-miterlimit="10"/>
<path d="M2012.62 138.889L-572.619 138.889" stroke="white" stroke-width="0.4" stroke-miterlimit="10"/>
<path d="M2012.62 152.236L-572.619 152.236" stroke="white" stroke-width="0.4" stroke-miterlimit="10"/>
<path d="M2012.62 165.583L-572.619 165.583" stroke="white" stroke-width="0.4" stroke-miterlimit="10"/>
<path d="M2012.62 178.929L-572.619 178.929" stroke="white" stroke-width="0.4" stroke-miterlimit="10"/>
<path d="M2012.62 192.269L-572.619 192.269" stroke="white" stroke-width="0.4" stroke-miterlimit="10"/>
<path d="M2012.62 205.616L-572.619 205.616" stroke="white" stroke-width="0.4" stroke-miterlimit="10"/>
<path d="M2012.62 218.963L-572.619 218.963" stroke="white" stroke-width="0.4" stroke-miterlimit="10"/>
<path d="M2012.62 232.31L-572.619 232.31" stroke="white" stroke-width="0.4" stroke-miterlimit="10"/>
<path d="M2012.62 245.649L-572.619 245.649" stroke="white" stroke-width="0.4" stroke-miterlimit="10"/>
<path d="M2012.62 258.996L-572.619 258.996" stroke="white" stroke-width="0.4" stroke-miterlimit="10"/>
<path d="M2012.62 272.343L-572.619 272.343" stroke="white" stroke-width="0.4" stroke-miterlimit="10"/>
<path d="M2012.62 285.69L-572.619 285.69" stroke="white" stroke-width="0.4" stroke-miterlimit="10"/>
<path d="M2012.62 299.029L-572.619 299.029" stroke="white" stroke-width="0.4" stroke-miterlimit="10"/>
<path d="M2012.62 312.376L-572.619 312.376" stroke="white" stroke-width="0.4" stroke-miterlimit="10"/>
<path d="M2012.62 325.723L-572.619 325.723" stroke="white" stroke-width="0.4" stroke-miterlimit="10"/>
<path d="M2012.62 339.07L-572.619 339.07" stroke="white" stroke-width="0.4" stroke-miterlimit="10"/>
<path d="M2012.62 352.41L-572.619 352.41" stroke="white" stroke-width="0.4" stroke-miterlimit="10"/>
<path d="M2012.62 365.756L-572.619 365.756" stroke="white" stroke-width="0.4" stroke-miterlimit="10"/>
<path d="M2012.62 379.103L-572.619 379.103" stroke="white" stroke-width="0.4" stroke-miterlimit="10"/>
<path d="M2012.62 392.45L-572.619 392.45" stroke="white" stroke-width="0.4" stroke-miterlimit="10"/>
<path d="M2012.62 405.797L-572.619 405.797" stroke="white" stroke-width="0.4" stroke-miterlimit="10"/>
<path d="M2012.62 419.137L-572.619 419.137" stroke="white" stroke-width="0.4" stroke-miterlimit="10"/>
<path d="M2012.62 432.483L-572.619 432.483" stroke="white" stroke-width="0.4" stroke-miterlimit="10"/>
<path d="M2012.62 445.83L-572.619 445.83" stroke="white" stroke-width="0.4" stroke-miterlimit="10"/>
<path d="M2012.62 459.177L-572.619 459.177" stroke="white" stroke-width="0.4" stroke-miterlimit="10"/>
<path d="M2012.62 472.517L-572.619 472.517" stroke="white" stroke-width="0.4" stroke-miterlimit="10"/>
<path d="M2012.62 485.864L-572.619 485.864" stroke="white" stroke-width="0.4" stroke-miterlimit="10"/>
<path d="M2012.62 499.21C1150.88 499.21 289.132 499.21 -572.612 499.21" stroke="white" stroke-width="0.4" stroke-miterlimit="10"/>
<path d="M2012.62 512.557L-572.619 512.557" stroke="white" stroke-width="0.4" stroke-miterlimit="10"/>
<path d="M2012.62 525.897C1150.88 525.897 289.132 525.897 -572.612 525.897" stroke="white" stroke-width="0.4" stroke-miterlimit="10"/>
<path d="M2012.62 539.244L-572.619 539.244" stroke="white" stroke-width="0.4" stroke-miterlimit="10"/>
<path d="M2012.62 552.59C1150.88 552.59 289.132 552.59 -572.612 552.59" stroke="white" stroke-width="0.4" stroke-miterlimit="10"/>
<path d="M2012.62 565.937L-572.619 565.937" stroke="white" stroke-width="0.4" stroke-miterlimit="10"/>
<path d="M2012.62 579.277C1150.88 579.277 289.132 579.277 -572.612 579.277" stroke="white" stroke-width="0.4" stroke-miterlimit="10"/>
<path d="M2012.62 592.624L-572.619 592.624" stroke="white" stroke-width="0.4" stroke-miterlimit="10"/>
<path d="M2012.62 605.971C1150.88 605.971 289.132 605.971 -572.612 605.971" stroke="white" stroke-width="0.4" stroke-miterlimit="10"/>
<path d="M2012.62 619.317L-572.619 619.317" stroke="white" stroke-width="0.4" stroke-miterlimit="10"/>
<path d="M2012.62 632.657C1150.88 632.657 289.132 632.657 -572.612 632.657" stroke="white" stroke-width="0.4" stroke-miterlimit="10"/>
<path d="M2012.62 646.004L-572.619 646.004" stroke="white" stroke-width="0.4" stroke-miterlimit="10"/>
<path d="M2012.62 659.351C1150.88 659.351 289.132 659.351 -572.612 659.351" stroke="white" stroke-width="0.4" stroke-miterlimit="10"/>
<path d="M2012.62 672.698L-572.619 672.698" stroke="white" stroke-width="0.4" stroke-miterlimit="10"/>
<path d="M2012.62 686.037C1150.88 686.037 289.132 686.037 -572.612 686.037" stroke="white" stroke-width="0.4" stroke-miterlimit="10"/>
<path d="M2012.62 699.384L-572.619 699.384" stroke="white" stroke-width="0.4" stroke-miterlimit="10"/>
<path d="M2012.62 712.731C1150.88 712.731 289.132 712.731 -572.612 712.731" stroke="white" stroke-width="0.4" stroke-miterlimit="10"/>
<path d="M2012.62 726.078L-572.619 726.078" stroke="white" stroke-width="0.4" stroke-miterlimit="10"/>
<path d="M2012.62 739.424C1150.88 739.424 289.132 739.424 -572.612 739.424" stroke="white" stroke-width="0.4" stroke-miterlimit="10"/>
<path d="M2012.62 752.764L-572.619 752.764" stroke="white" stroke-width="0.4" stroke-miterlimit="10"/>
<path d="M2012.62 766.111C1150.88 766.111 289.132 766.111 -572.612 766.111" stroke="white" stroke-width="0.4" stroke-miterlimit="10"/>
<path d="M2012.62 779.458L-572.619 779.458" stroke="white" stroke-width="0.4" stroke-miterlimit="10"/>
<path d="M2012.62 792.805C1150.88 792.805 289.132 792.805 -572.612 792.805" stroke="white" stroke-width="0.4" stroke-miterlimit="10"/>
<path d="M2012.62 806.145L-572.619 806.145" stroke="white" stroke-width="0.4" stroke-miterlimit="10"/>
<path d="M2012.62 819.491C1150.88 819.491 289.132 819.491 -572.612 819.491" stroke="white" stroke-width="0.4" stroke-miterlimit="10"/>
<path d="M2012.62 832.838L-572.619 832.838" stroke="white" stroke-width="0.4" stroke-miterlimit="10"/>
<path d="M2012.62 846.185C1150.88 846.185 289.132 846.185 -572.612 846.185" stroke="white" stroke-width="0.4" stroke-miterlimit="10"/>
<path d="M2012.62 859.524L-572.619 859.524" stroke="white" stroke-width="0.4" stroke-miterlimit="10"/>
<path d="M2012.62 872.872L-572.619 872.872" stroke="white" stroke-width="0.4" stroke-miterlimit="10"/>
<path d="M2012.62 886.218L-572.619 886.218" stroke="white" stroke-width="0.4" stroke-miterlimit="10"/>
<path d="M2012.62 899.565L-572.619 899.565" stroke="white" stroke-width="0.4" stroke-miterlimit="10"/>
</g>
</g>
<defs>
<linearGradient id="paint0_linear_10_517" x1="720" y1="0" x2="720" y2="905" gradientUnits="userSpaceOnUse">
<stop offset="0.639423" stop-color="white" stop-opacity="0.3"/>
<stop offset="0.778846" stop-color="#FAC118" stop-opacity="0.35"/>
</linearGradient>
<clipPath id="clip0_10_517">
<rect width="1440" height="905" fill="white"/>
</clipPath>
<clipPath id="clip1_10_517">
<rect width="2603" height="2603" fill="white" transform="translate(-581.5 -849)"/>
</clipPath>
</defs>
</svg>
